<?xml version="1.0" encoding="utf-8"?>
<!-- Generator: Adobe Illustrator 25.2.1, SVG Export Plug-In . SVG Version: 6.00 Build 0)  -->
<svg version="1.1" id="Layer_1" xmlns="http://www.w3.org/2000/svg" xmlns:xlink="http://www.w3.org/1999/xlink" x="0px" y="0px"
	 width="250px" height="179.91336px" viewBox="0 0 250 179.91336" enable-background="new 0 0 250 179.91336" xml:space="preserve">
<g>
	<g>
		<path fill="#FFFFFF" d="M110.48363,78.76397l-0.35455,0.5672v-7.48031h-6.48768v32.61572h6.48768V87.41425
			c0-2.71803,0.76226-5.06968,2.28664-7.05494c1.52446-1.98533,3.32656-2.97796,5.40645-2.97796
			c1.91438,0,4.0372,1.27094,6.39165,3.27657l3.09911-5.84412c-2.77319-2.31477-5.03564-3.60109-7.47-3.60109
			C116.72314,71.21272,113.60336,73.7298,110.48363,78.76397z"/>
		<path fill="#FFFFFF" d="M141.96432,71.21272c-4.49059,0-8.14214,1.55394-10.95465,4.6619s-4.21875,7.14355-4.21875,12.10683
			c0,3.30884,0.66764,6.22179,2.00298,8.73888c1.33542,2.51708,3.11392,4.52013,5.33557,6.00908
			c2.22165,1.48901,5.12865,2.23348,8.72116,2.23348c2.6234,0,4.91005-0.2836,6.85994-0.85086
			c1.94981-0.5672,3.91743-1.51262,5.90269-2.83613v-6.31047c-3.59244,2.64709-7.51575,3.97066-11.77,3.97066
			c-3.04884,0-5.53638-0.92175-7.46259-2.76524c-1.92628-1.8435-2.97208-4.32514-3.13751-7.44494h22.93736v-0.81535
			c0-5.08144-1.28807-9.13476-3.86427-12.16C149.74007,72.72533,146.28946,71.21272,141.96432,71.21272z M133.38492,84.86165
			c0.44911-2.57613,1.41219-4.56145,2.88936-5.95592c1.47719-1.39439,3.37384-2.09165,5.69005-2.09165
			s4.1597,0.69727,5.53049,2.09165c1.37077,1.39446,2.13893,3.37979,2.30437,5.95592H133.38492z"/>
		<path fill="#FFFFFF" d="M173.30266,85.68296l-2.30638-1.31167c-1.74893-0.96806-2.97208-1.79525-3.66725-2.48164
			c-0.69527-0.68543-1.04393-1.40726-1.04393-2.16551c0-0.87447,0.38411-1.57859,1.15219-2.11138
			c0.76814-0.53176,1.77856-0.79868,3.03119-0.79868c2.43436,0,5.56592,1.15814,9.39474,3.47427v-6.38128
			c-3.35611-1.79629-6.6295-2.69436-9.82018-2.69436c-3.07253,0-5.58372,0.79175-7.53354,2.37525
			c-1.94989,1.58356-2.9248,3.62794-2.9248,6.13319c0,1.93806,0.64404,3.72839,1.93217,5.37093
			c1.28806,1.64262,4.01192,3.62206,8.17162,5.9382c2.07988,1.18174,3.43295,2.08577,4.05927,2.71208
			c0.6263,0.6263,0.93945,1.41218,0.93945,2.35753c0,0.92175-0.48447,1.71356-1.45349,2.37532
			c-0.96902,0.66175-2.12717,0.99263-3.47427,0.99263c-1.29991,0-2.9012-0.39587-4.80374-1.18763
			c-1.9026-0.79175-3.76382-1.82578-5.58371-3.10207v6.94862c2.2926,1.11079,4.19514,1.87305,5.70775,2.28664
			c1.51262,0.4136,3.23796,0.62036,5.17601,0.62036c3.28517,0,5.97365-0.85675,8.06529-2.56824
			c2.09166-1.71357,3.13751-3.90566,3.13751-6.57635C181.45856,92.15686,178.73859,88.75548,173.30266,85.68296z"/>
		<g>
			<rect x="185.11731" y="71.85085" fill="#FFFFFF" width="6.45223" height="32.61568"/>
			<path fill="#FFFFFF" d="M188.30797,68.44743c1.06363,0,1.97351-0.37811,2.7298-1.13447
				c0.75636-0.75629,1.13448-1.65434,1.13448-2.69431c0-1.06355-0.37811-1.96168-1.13448-2.69431
				c-0.75629-0.7327-1.66617-1.09905-2.7298-1.09905c-0.99263,0-1.8671,0.38406-2.62338,1.15218
				c-0.75629,0.76819-1.13448,1.64853-1.13448,2.64117c0,1.0163,0.37819,1.90847,1.13448,2.67659
				C186.44087,68.06344,187.31534,68.44743,188.30797,68.44743z"/>
		</g>
		<path fill="#FFFFFF" d="M209.77086,85.68296l-2.3063-1.31167c-1.74895-0.96806-2.97208-1.79525-3.66734-2.48164
			c-0.69525-0.68543-1.04384-1.40726-1.04384-2.16551c0-0.87447,0.38409-1.57859,1.15218-2.11138
			c0.76814-0.53176,1.7785-0.79868,3.03119-0.79868c2.4343,0,5.56593,1.15814,9.39468,3.47427v-6.38128
			c-3.35605-1.79629-6.62944-2.69436-9.82011-2.69436c-3.07251,0-5.58371,0.79175-7.53354,2.37525
			c-1.94989,1.58356-2.92479,3.62794-2.92479,6.13319c0,1.93806,0.64403,3.72839,1.9321,5.37093
			c1.28813,1.64262,4.01198,3.62206,8.17168,5.9382c2.0799,1.18174,3.43295,2.08577,4.05927,2.71208
			c0.62631,0.6263,0.93947,1.41218,0.93947,2.35753c0,0.92175-0.48454,1.71356-1.45351,2.37532
			c-0.96902,0.66175-2.12717,0.99263-3.47433,0.99263c-1.29991,0-2.90114-0.39587-4.80374-1.18763
			c-1.90254-0.79175-3.76376-1.82578-5.58365-3.10207v6.94862c2.29254,1.11079,4.19514,1.87305,5.70776,2.28664
			s3.23795,0.62036,5.17601,0.62036c3.28516,0,5.97363-0.85675,8.06529-2.56824c2.09164-1.71357,3.13744-3.90566,3.13744-6.57635
			C217.92676,92.15686,215.20686,88.75548,209.77086,85.68296z"/>
		<path fill="#FFFFFF" d="M235.15857,99.21969c-3.09613,0-4.64418-1.86322-4.64418-5.59154v-15.9632h11.98271v-5.81409h-11.98271
			V58.13097c0,0-0.87436,5.55169-4.77739,11.66446c-3.90303,6.1127-7.34717,7.86951-7.34717,7.86951h5.67232v14.46436
			c0,2.95435,0.13588,4.95734,0.40764,6.00908c0.27184,1.05174,0.6086,1.90261,1.01042,2.55253
			c0.40176,0.64999,0.90991,1.2349,1.52438,1.75489c1.96173,1.72533,4.41971,2.58797,7.37405,2.58797
			c2.93068,0,5.63681-0.6972,8.11845-2.09165v-6.0268C239.9209,98.45155,237.47476,99.21969,235.15857,99.21969z"/>
	</g>
	<g>
		<g>
			<path fill="#0096E4" d="M95.97089,104.46658c0,0-66.14307-54.62865-88.46799-99.06709l32.30924,69.8143l23.93549,20.56406
				L95.97089,104.46658z"/>
			<path fill="#FF9B00" d="M101.01338,174.51387l-32.30923-69.81429L44.76866,84.13552L12.5454,75.44685
				C12.5454,75.44685,78.68846,130.07544,101.01338,174.51387z"/>
		</g>
		<g>
			<path fill="#FFFFFF" d="M62.80954,97.30359l23.02478,6.20842c0,0-47.26178-39.03426-63.21379-70.78726l23.0862,49.88503
				l-23.02478-6.20842c0,0,47.26179,39.03426,63.21379,70.78726L62.80954,97.30359z"/>
		</g>
	</g>
	<g>
		<path fill="#FFFFFF" d="M116.03977,111.6854c4.4454,0,6.66753,2.26917,6.66753,6.80749v11.73816
			c0,4.53717-2.22213,6.80634-6.66753,6.80634h-8.3694v-2.60414h8.09121c2.87086,0,4.30659-1.45924,4.30659-4.37657v-11.39056
			c0-2.91733-1.43572-4.37542-4.30659-4.37542h-9.48047v22.74669h-2.63971V111.6854H116.03977z"/>
		<path fill="#FFFFFF" d="M147.57472,111.6854v2.60529h-13.12741v8.61203h12.91862v2.5009h-12.91862v9.02962h13.26622v2.60414
			H131.8076V111.6854H147.57472z"/>
		<path fill="#FFFFFF" d="M173.79584,111.6854v2.60529H162.5441c-2.08446,0-3.12611,1.07607-3.12611,3.22937v2.43092
			c0,1.92156,0.9384,2.88291,2.81293,2.88291h7.46713c3.28673,0,4.93066,1.67835,4.93066,5.03506v3.61139
			c0,3.70546-1.81717,5.55704-5.45149,5.55704h-12.19016v-2.60414h11.91254c2.10625,0,3.15938-1.07722,3.15938-3.23051v-3.12498
			c0-1.92155-0.93726-2.88291-2.81293-2.88291h-7.50154c-3.28789,0-4.93068-1.67835-4.93068-5.03506v-2.91733
			c0-3.70431,1.81717-5.55704,5.45151-5.55704H173.79584z"/>
		<path fill="#FFFFFF" d="M186.36871,111.6854v25.35198H183.729V111.6854H186.36871z"/>
		<path fill="#FFFFFF" d="M213.45827,111.6854v2.60529h-11.84256c-2.33798,0-3.50699,1.19194-3.50699,3.57697v12.9886
			c0,2.38388,1.16901,3.57698,3.50699,3.57698h6.8075c2.10626,0,3.16054-1.05428,3.16054-3.16054v-6.32108h-7.1895v-2.32652h9.65483
			v9.27281c0,3.4267-1.70129,5.13947-5.10504,5.13947h-7.81358c-3.77429,0-5.66144-1.92157-5.66144-5.76468v-13.82262
			c0-3.84197,1.88715-5.76468,5.66144-5.76468H213.45827z"/>
		<path fill="#FFFFFF" d="M226.03229,111.6854l13.92586,20.66337V111.6854h2.56973v25.35198h-2.32652L225.7191,115.7832v21.25418
			h-2.56973V111.6854H226.03229z"/>
	</g>
</g>
</svg>
