<?xml version="1.0" encoding="utf-8"?>
<!-- Generator: Adobe Illustrator 25.2.1, SVG Export Plug-In . SVG Version: 6.00 Build 0)  -->
<svg version="1.1" id="Layer_1" xmlns="http://www.w3.org/2000/svg" xmlns:xlink="http://www.w3.org/1999/xlink" x="0px" y="0px"
	 width="234.9942px" height="169.1144px" viewBox="0 0 234.9942 169.1144" enable-background="new 0 0 234.9942 169.1144"
	 xml:space="preserve">
<g>
	<g>
		<path fill="#FFFFFF" d="M102.98074,73.36448l-0.35455,0.5672v-7.4803h-6.48767v32.61572h6.48767V82.01476
			c0-2.71803,0.76226-5.06969,2.28665-7.05495c1.52445-1.98533,3.32655-2.97796,5.40644-2.97796
			c1.91438,0,4.03721,1.27094,6.39165,3.27658l3.09911-5.84412c-2.77319-2.31476-5.03564-3.60109-7.47-3.60109
			C109.22025,65.81322,106.10046,68.33031,102.98074,73.36448z"/>
		<path fill="#FFFFFF" d="M134.46143,65.81322c-4.49059,0-8.14213,1.55395-10.95465,4.6619s-4.21875,7.14354-4.21875,12.10683
			c0,3.30884,0.66764,6.2218,2.00298,8.73888c1.33541,2.51708,3.11391,4.52013,5.33556,6.00908
			c2.22166,1.48901,5.12865,2.23349,8.72117,2.23349c2.6234,0,4.91005-0.2836,6.85994-0.85087
			c1.94981-0.5672,3.91743-1.51262,5.90269-2.83612v-6.31047c-3.59244,2.64708-7.51575,3.97066-11.77,3.97066
			c-3.04884,0-5.53638-0.92175-7.46259-2.76524c-1.92628-1.8435-2.97208-4.32514-3.13752-7.44493h22.93737v-0.81535
			c0-5.08145-1.28807-9.13476-3.86426-12.16C142.23717,67.32584,138.78656,65.81322,134.46143,65.81322z M125.88203,79.46217
			c0.4491-2.57613,1.41218-4.56146,2.88935-5.95592c1.47719-1.39439,3.37384-2.09165,5.69005-2.09165
			s4.1597,0.69726,5.53049,2.09165c1.37077,1.39445,2.13893,3.37978,2.30437,5.95592H125.88203z"/>
		<path fill="#FFFFFF" d="M165.79976,80.28347l-2.30638-1.31167c-1.74893-0.96806-2.97208-1.79525-3.66725-2.48164
			c-0.69527-0.68542-1.04393-1.40726-1.04393-2.16551c0-0.87447,0.38411-1.57858,1.15219-2.11138
			c0.76814-0.53175,1.77856-0.79867,3.03119-0.79867c2.43436,0,5.56592,1.15813,9.39474,3.47427v-6.38129
			c-3.35611-1.79629-6.6295-2.69436-9.82018-2.69436c-3.07253,0-5.58372,0.79175-7.53354,2.37525
			c-1.94989,1.58357-2.9248,3.62794-2.9248,6.13319c0,1.93805,0.64404,3.72839,1.93217,5.37093
			c1.28806,1.64262,4.01192,3.62206,8.17162,5.93819c2.07988,1.18174,3.43295,2.08577,4.05927,2.71208
			s0.93947,1.41218,0.93947,2.35753c0,0.92175-0.48448,1.71357-1.45351,2.37532c-0.96902,0.66176-2.12717,0.99263-3.47427,0.99263
			c-1.29991,0-2.9012-0.39587-4.80374-1.18762c-1.9026-0.79175-3.76382-1.82578-5.58371-3.10207v6.94862
			c2.2926,1.11079,4.19514,1.87305,5.70776,2.28665s3.23795,0.62035,5.17599,0.62035c3.28517,0,5.97365-0.85674,8.06529-2.56824
			c2.09166-1.71357,3.13751-3.90565,3.13751-6.57635C173.95566,86.75737,171.23569,83.35599,165.79976,80.28347z"/>
		<g>
			<rect x="177.61441" y="66.45136" fill="#FFFFFF" width="6.45223" height="32.61568"/>
			<path fill="#FFFFFF" d="M180.80507,63.04794c1.06363,0,1.97351-0.37811,2.7298-1.13447
				c0.75636-0.75629,1.13448-1.65434,1.13448-2.6943c0-1.06355-0.37811-1.96168-1.13448-2.69431
				c-0.75629-0.7327-1.66617-1.09905-2.7298-1.09905c-0.99263,0-1.8671,0.38406-2.62338,1.15218
				c-0.75629,0.76819-1.13448,1.64853-1.13448,2.64117c0,1.0163,0.37819,1.90847,1.13448,2.67659
				C178.93797,62.66395,179.81244,63.04794,180.80507,63.04794z"/>
		</g>
		<path fill="#FFFFFF" d="M202.26796,80.28347l-2.3063-1.31167c-1.74895-0.96806-2.97208-1.79525-3.66733-2.48164
			c-0.69527-0.68542-1.04385-1.40726-1.04385-2.16551c0-0.87447,0.38409-1.57858,1.15218-2.11138
			c0.76814-0.53175,1.7785-0.79867,3.03119-0.79867c2.4343,0,5.56593,1.15813,9.39468,3.47427v-6.38129
			c-3.35605-1.79629-6.62944-2.69436-9.82011-2.69436c-3.07251,0-5.58371,0.79175-7.53354,2.37525
			c-1.94989,1.58357-2.92479,3.62794-2.92479,6.13319c0,1.93805,0.64403,3.72839,1.9321,5.37093
			c1.28813,1.64262,4.01198,3.62206,8.17168,5.93819c2.0799,1.18174,3.43295,2.08577,4.05927,2.71208
			s0.93947,1.41218,0.93947,2.35753c0,0.92175-0.48454,1.71357-1.45351,2.37532c-0.96902,0.66176-2.12717,0.99263-3.47433,0.99263
			c-1.29991,0-2.90112-0.39587-4.80374-1.18762c-1.90254-0.79175-3.76375-1.82578-5.58365-3.10207v6.94862
			c2.29254,1.11079,4.19514,1.87305,5.70776,2.28665s3.23796,0.62035,5.17601,0.62035c3.28516,0,5.97363-0.85674,8.06529-2.56824
			c2.09164-1.71357,3.13744-3.90565,3.13744-6.57635C210.42386,86.75737,207.70396,83.35599,202.26796,80.28347z"/>
		<path fill="#FFFFFF" d="M227.65567,93.82021c-3.09613,0-4.64418-1.86323-4.64418-5.59154V72.26546h11.98271v-5.81408h-11.98271
			V52.73148c0,0-0.87436,5.55169-4.77739,11.66446c-3.90303,6.1127-7.34717,7.86951-7.34717,7.86951h5.67232v14.46436
			c0,2.95435,0.13588,4.95734,0.40764,6.00908c0.27184,1.05175,0.6086,1.90261,1.01042,2.55253
			c0.40176,0.64999,0.90991,1.2349,1.52438,1.75489c1.96173,1.72533,4.41971,2.58797,7.37405,2.58797
			c2.93068,0,5.63681-0.69719,8.11845-2.09165v-6.02679C232.418,93.05206,229.97186,93.82021,227.65567,93.82021z"/>
	</g>
	<g>
		<g>
			<path fill="#0096E4" d="M88.46799,99.06709c0,0-66.14307-54.62865-88.46799-99.06709l32.30924,69.81429l23.93549,20.56406
				L88.46799,99.06709z"/>
			<path fill="#FF9B00" d="M93.51048,169.1144l-32.30923-69.8143L37.26576,78.73603L5.0425,70.04736
				C5.0425,70.04736,71.18557,124.67595,93.51048,169.1144z"/>
		</g>
		<g>
			<path fill="#FFFFFF" d="M55.30664,91.9041l23.02478,6.20842c0,0-47.26178-39.03426-63.21379-70.78726l23.08621,49.88503
				l-23.02478-6.20842c0,0,47.26179,39.03426,63.21379,70.78725L55.30664,91.9041z"/>
		</g>
	</g>
	<g>
		<path fill="#FFFFFF" d="M102.94282,106.28591c2.43966,0,3.65918,1.24533,3.65918,3.736v6.44197
			c0,2.49004-1.21952,3.73537-3.65918,3.73537h-4.59319v-1.42917h4.44051c1.57555,0,2.36349-0.80084,2.36349-2.40189v-6.25121
			c0-1.60105-0.78793-2.40126-2.36349-2.40126H97.5872v12.48354h-1.44868v-13.91334H102.94282z"/>
		<path fill="#FFFFFF" d="M120.2494,106.28591v1.4298h-7.20441v4.72634h7.08983v1.37251h-7.08983v4.95551h7.28059v1.42917h-8.72928
			v-13.91334H120.2494z"/>
		<path fill="#FFFFFF" d="M134.63972,106.28591v1.4298h-6.17503c-1.14396,0-1.71563,0.59056-1.71563,1.7723v1.33411
			c0,1.05457,0.51501,1.58216,1.54375,1.58216h4.09801c1.80379,0,2.70598,0.92109,2.70598,2.76328v1.98196
			c0,2.03358-0.99727,3.04974-2.99181,3.04974h-6.69004v-1.42917h6.53768c1.15593,0,1.73389-0.59119,1.73389-1.77293v-1.715
			c0-1.05457-0.51437-1.58216-1.54376-1.58216h-4.1169c-1.8044,0-2.70598-0.9211-2.70598-2.76328v-1.60105
			c0-2.03295,0.99728-3.04974,2.99182-3.04974H134.63972z"/>
		<path fill="#FFFFFF" d="M141.53981,106.28591v13.91334h-1.4487v-13.91334H141.53981z"/>
		<path fill="#FFFFFF" d="M156.40672,106.28591v1.4298h-6.49927c-1.28311,0-1.92465,0.65414-1.92465,1.96307v7.12823
			c0,1.30829,0.64154,1.96307,1.92465,1.96307h3.73599c1.15593,0,1.73453-0.5786,1.73453-1.73453v-3.46905h-3.94565v-1.27681
			h5.29865v5.08898c0,1.88059-0.93369,2.82057-2.80168,2.82057h-4.28815c-2.07137,0-3.10704-1.05457-3.10704-3.1637v-7.58595
			c0-2.1085,1.03568-3.1637,3.10704-3.1637H156.40672z"/>
		<path fill="#FFFFFF" d="M163.30743,106.28591l7.64261,11.3402v-11.3402h1.41028v13.91334h-1.27681l-7.94795-11.66444v11.66444
			h-1.41029v-13.91334H163.30743z"/>
	</g>
</g>
</svg>
