<?xml version="1.0" encoding="utf-8"?>
<!-- Generator: Adobe Illustrator 25.2.1, SVG Export Plug-In . SVG Version: 6.00 Build 0)  -->
<svg version="1.1" id="Layer_1" xmlns="http://www.w3.org/2000/svg" xmlns:xlink="http://www.w3.org/1999/xlink" x="0px" y="0px"
	 width="372.46747px" height="131.74442px" viewBox="0 0 372.46747 131.74442" enable-background="new 0 0 372.46747 131.74442"
	 xml:space="preserve">
<g>
	<g>
		<path fill="#777777" d="M59.85497,77.16183H12.34318c-6.23508,0-11.28961-5.05453-11.28961-11.28961V65.8722
			c0-6.23508,5.05453-11.28961,11.28961-11.28961h47.51179c6.23508,0,11.2896,5.05453,11.2896,11.28961v0.00002
			C71.14457,72.1073,66.09004,77.16183,59.85497,77.16183z"/>
		<path fill="#FF9B00" d="M59.85497,39.2254H12.34318c-6.23508,0-11.28961-5.05453-11.28961-11.28961v-0.00002
			c0-6.23508,5.05453-11.28961,11.28961-11.28961h47.51179c6.23508,0,11.2896,5.05453,11.2896,11.28961v0.00002
			C71.14457,34.17086,66.09004,39.2254,59.85497,39.2254z"/>
		<path fill="#0096E4" d="M48.56538,103.80865V65.8722c0-6.23508,5.05453-11.28961,11.28961-11.28961h0.00002
			c6.23508,0,11.28961,5.05453,11.28961,11.28961v37.93645c0,6.23508-5.05453,11.28961-11.28961,11.28961h-0.00002
			C53.61991,115.09826,48.56538,110.04372,48.56538,103.80865z"/>
		<path fill="#0096E4" d="M12.3432,92.51902h47.51179c6.23508,0,11.2896,5.05453,11.2896,11.2896v0.00002
			c0,6.23508-5.05453,11.28961-11.2896,11.28961H12.3432c-6.23508,0-11.28961-5.05453-11.28961-11.28961v-0.00002
			C1.05359,97.57355,6.10812,92.51902,12.3432,92.51902z"/>
		<path fill="#FF9B00" d="M1.05357,65.87222V27.93577c0-6.23508,5.05453-11.28961,11.28961-11.28961h0.00002
			c6.23508,0,11.28961,5.05453,11.28961,11.28961v37.93645c0,6.23508-5.05453,11.28961-11.28961,11.28961h-0.00002
			C6.1081,77.16183,1.05357,72.1073,1.05357,65.87222z"/>
	</g>
	<g>
		<path fill="#FFFFFF" d="M118.6431,69.05678l-4.23926-2.57617c-2.65918-1.62305-4.55078-3.2207-5.67578-4.79199
			c-1.125-1.57031-1.68701-3.37891-1.68701-5.42383c0-3.06836,1.06396-5.55957,3.19336-7.47461
			c2.12891-1.91504,4.89453-2.87305,8.29688-2.87305c3.25342,0,6.23779,0.91406,8.95264,2.74023v6.33105
			c-2.80762-2.7002-5.82861-4.05078-9.06396-4.05078c-1.82227,0-3.31885,0.4209-4.49023,1.26367s-1.75684,1.92188-1.75684,3.23633
			c0,1.16699,0.43115,2.25977,1.29395,3.27832s2.25049,2.08789,4.1626,3.20898l4.26025,2.52051
			c4.75195,2.83887,7.12842,6.45215,7.12842,10.83984c0,3.12305-1.0459,5.66113-3.1377,7.61328s-4.81104,2.92871-8.15771,2.92871
			c-3.84863,0-7.35352-1.18262-10.51416-3.54883v-7.08398c3.01172,3.81641,6.49805,5.72461,10.4585,5.72461
			c1.74707,0,3.20215-0.48633,4.36475-1.45898c1.16162-0.97266,1.74268-2.19141,1.74268-3.6543
			C123.77444,73.43373,122.064,71.18471,118.6431,69.05678z"/>
		<path fill="#FFFFFF" d="M135.32083,85.381V46.41908h9.76123c3.94141,0,7.06982,0.97656,9.38477,2.92871
			s3.47217,4.59277,3.47217,7.9209c0,2.26855-0.56738,4.22949-1.70117,5.88477c-1.13428,1.6543-2.76123,2.89062-4.88086,3.70898
			c1.24561,0.81836,2.46387,1.93359,3.65381,3.34668c1.18945,1.41309,2.86279,3.87695,5.02002,7.39062
			c1.35693,2.21289,2.44482,3.87695,3.26318,4.99219l2.06396,2.78906h-6.6377l-1.69922-2.56738
			c-0.05566-0.09277-0.16748-0.25098-0.33447-0.47461l-1.08643-1.53418l-1.72656-2.84668l-1.86621-3.04102
			c-1.15137-1.59961-2.20654-2.87305-3.16504-3.82031c-0.9585-0.94629-1.82471-1.62891-2.59668-2.0459
			c-0.77246-0.41797-2.0708-0.62695-3.89502-0.62695h-1.45215V85.381H135.32083z M142.57181,51.16029h-1.67334v12.2998h2.11963
			c2.82617,0,4.76465-0.24121,5.81494-0.72559c1.05029-0.4834,1.86865-1.21289,2.45459-2.18945
			c0.58545-0.97559,0.87842-2.08691,0.87842-3.33203c0-1.22754-0.32568-2.33789-0.97607-3.33301
			c-0.65137-0.99414-1.56689-1.69629-2.74707-2.10547C147.26175,51.36537,145.30521,51.16029,142.57181,51.16029z"/>
		<path fill="#FFFFFF" d="M182.0928,46.19643h3.92041L203.48294,85.381h-5.70898l-5.19287-11.5459h-16.62256l-4.86865,11.5459
			h-5.73193L182.0928,46.19643z M190.28812,68.87025l-6.28613-14.1123l-5.8291,14.1123H190.28812z"/>
		<path fill="#FFFFFF" d="M239.04202,76.34486v6.13574c-4.08984,2.23145-8.8125,3.34668-14.16797,3.34668
			c-4.34961,0-8.04102-0.87402-11.07227-2.62207c-3.02979-1.74707-5.42822-4.15527-7.1958-7.22266
			c-1.76562-3.06836-2.64844-6.38672-2.64844-9.95703c0-5.6709,2.02148-10.43945,6.06445-14.30664
			c4.04541-3.86719,9.03369-5.80176,14.96338-5.80176c4.0918,0,8.63672,1.06934,13.63867,3.20801v5.99609
			c-4.55469-2.60352-9.00781-3.90527-13.35938-3.90527c-4.46289,0-8.16602,1.40918-11.11328,4.22559
			c-2.94775,2.81738-4.42041,6.34473-4.42041,10.58398c0,4.27637,1.44922,7.79102,4.3501,10.54199
			c2.90039,2.75195,6.60938,4.12793,11.12891,4.12793C229.93265,80.69545,234.54202,79.24525,239.04202,76.34486z"/>
		<path fill="#FFFFFF" d="M245.90335,46.41908h5.57812v33.88574h17.54199V85.381h-23.12012V46.41908z"/>
	</g>
</g>
</svg>
